<svg width="759" height="684" viewBox="0 0 759 684" fill="none" xmlns="http://www.w3.org/2000/svg">
<g clip-path="url(#clip0)">
<path d="M287.376 354.643C286.899 354.898 286.543 355.332 286.386 355.85C286.228 356.368 286.283 356.927 286.537 357.404L388.426 548.244C388.681 548.721 389.115 549.077 389.633 549.235C390.151 549.392 390.71 549.337 391.188 549.083L535.217 472.186C535.694 471.93 536.051 471.496 536.208 470.979C536.365 470.461 536.311 469.902 536.056 469.424L434.168 278.585C433.912 278.108 433.478 277.751 432.96 277.594C432.443 277.437 431.884 277.491 431.406 277.746L287.376 354.643Z" fill="#3F3D56"/>
<path d="M300.764 360.219L394.003 534.854L521.829 466.609L428.591 291.973L300.764 360.219ZM292.664 364.543L292.682 364.534L292.663 364.544L292.664 364.543Z" fill="white"/>
<path d="M332.994 379.419C331.008 380.479 330.585 383.574 332.05 386.317C333.515 389.06 336.322 390.431 338.307 389.371L431.927 339.388C433.913 338.327 434.335 335.232 432.871 332.489C431.406 329.746 428.599 328.375 426.613 329.436L332.994 379.419Z" fill="#9962D1"/>
<path d="M344.529 401.023C342.543 402.083 342.12 405.178 343.585 407.922C345.049 410.665 347.856 412.035 349.842 410.975L443.461 360.992C445.447 359.932 445.87 356.837 444.405 354.094C442.941 351.35 440.134 349.98 438.148 351.04L344.529 401.023Z" fill="#9962D1"/>
<path d="M356.063 422.628C354.077 423.688 353.655 426.783 355.119 429.526C356.584 432.269 359.391 433.64 361.377 432.58L454.996 382.596C456.982 381.536 457.405 378.441 455.94 375.698C454.475 372.955 451.668 371.584 449.683 372.644L356.063 422.628Z" fill="#9962D1"/>
<path d="M367.598 444.232C365.612 445.292 365.189 448.387 366.654 451.131C368.118 453.874 370.925 455.244 372.911 454.184L466.531 404.201C468.516 403.141 468.939 400.046 467.475 397.303C466.01 394.559 463.203 393.189 461.217 394.249L367.598 444.232Z" fill="#9962D1"/>
<path d="M379.132 465.837C377.146 466.897 376.724 469.992 378.188 472.735C379.653 475.478 382.46 476.849 384.446 475.789L478.065 425.805C480.051 424.745 480.474 421.65 479.009 418.907C477.545 416.164 474.738 414.793 472.752 415.853L379.132 465.837Z" fill="#9962D1"/>
<path d="M397.312 272.193L482.142 277.373L505.899 206.525L431.494 190.804L397.312 272.193Z" fill="#2F2E41"/>
<path d="M458.491 254.278C477.229 254.278 492.419 239.088 492.419 220.351C492.419 201.613 477.229 186.423 458.491 186.423C439.754 186.423 424.564 201.613 424.564 220.351C424.564 239.088 439.754 254.278 458.491 254.278Z" fill="#FFB8B8"/>
<path d="M513.613 288.5L458.613 297.5L444.113 240L482.613 236.5L513.613 288.5Z" fill="#FFB8B8"/>
<path d="M545.613 524.5L545.833 527.14C503.126 541.845 457.435 545.714 412.863 538.4L412.573 543.09C412.411 545.603 411.659 548.043 410.379 550.211C409.1 552.38 407.327 554.218 405.206 555.575C403.085 556.932 400.674 557.771 398.168 558.023C395.663 558.276 393.133 557.936 390.783 557.03L400.263 536.02L412.253 509.43L420.113 492L417.283 431.7L416.983 425.46L416.613 417.5L421.733 417.47L458.133 417.25L492.823 417.03L498.113 417C531.283 457.8 558.653 490.96 545.613 524.5Z" fill="#2F2E41"/>
<path d="M497.613 416.5L416.613 425.5L413.613 369.5C404.107 345.256 410.382 323.616 430.111 304.197L434.122 288.321C435.174 284.154 437.349 280.355 440.41 277.338C443.472 274.321 447.301 272.201 451.483 271.209V271.209C464.742 263.605 479.761 259.98 496.613 260.5C503.343 263.128 509.049 267.851 512.889 273.971C516.729 280.091 518.499 287.284 517.938 294.487C514.452 338.496 508.195 379.693 497.613 416.5Z" fill="#9962D1"/>
<path d="M474.613 322.5L473.963 327.41L463.613 405.5L458.133 417.25L456.343 421.09L414.613 510.5L412.863 538.4L412.573 543.09C412.434 545.424 411.785 547.7 410.673 549.757C409.561 551.814 408.012 553.603 406.135 554.998C404.258 556.393 402.099 557.361 399.809 557.833C397.519 558.305 395.153 558.27 392.877 557.731C390.602 557.192 388.472 556.162 386.637 554.712C384.802 553.263 383.306 551.429 382.255 549.341C381.203 547.252 380.622 544.958 380.55 542.621C380.479 540.283 380.921 537.959 381.843 535.81L383.513 531.88L392.613 510.5L417.283 431.7L419.313 425.2L421.733 417.47L428.613 395.5L439.573 327.94L440.613 321.5L474.613 322.5Z" fill="#FFB8B8"/>
<path d="M480.613 329.5C464.897 323.853 449.821 323.252 435.613 329.5L440.251 289.305C440.08 284.285 441.887 279.4 445.281 275.698C448.676 271.997 453.387 269.775 458.403 269.511C460.922 269.378 463.443 269.745 465.821 270.588C468.199 271.432 470.387 272.737 472.259 274.428C474.132 276.119 475.652 278.163 476.733 280.443C477.814 282.723 478.434 285.194 478.558 287.714L480.613 329.5Z" fill="#9962D1"/>
<path d="M432.826 180.266C432.826 180.266 415.283 186.668 414.833 209.942C414.808 213.859 415.33 217.76 416.386 221.532C417.523 225.809 418.436 235.09 410.786 247.463C405.788 255.493 401.269 263.812 397.253 272.377V272.377L417.006 274.283L420.272 241.538C421.856 225.662 425.768 210.106 431.884 195.371L432.011 195.063C432.011 195.063 441.073 210.813 458.297 210.328L451.972 204.35C451.972 204.35 473.544 212.474 485.274 214.105C486.613 214.292 487.876 214.84 488.926 215.69C489.976 216.541 490.774 217.662 491.235 218.933C491.695 220.204 491.8 221.576 491.538 222.902C491.276 224.228 490.657 225.458 489.748 226.458C489.679 226.534 489.609 226.609 489.537 226.685C482.364 234.274 468.086 251.913 477.079 265.203C486.072 278.493 478.795 282.392 478.795 282.392L492.119 274.629L498.166 270.765L498.305 275.686L530.187 271.094C530.187 271.094 538.764 269.622 519.721 249.228C519.721 249.228 514.62 241.243 516.554 234.179C518.156 228.806 518.457 223.129 517.432 217.617C512.648 194.671 495.137 149.276 432.826 180.266Z" fill="#2F2E41"/>
<path d="M457.113 681.157C524.492 681.157 579.113 678.023 579.113 674.157C579.113 670.291 524.492 667.157 457.113 667.157C389.734 667.157 335.113 670.291 335.113 674.157C335.113 678.023 389.734 681.157 457.113 681.157Z" fill="#E6E6E6"/>
<path d="M0.74267 322.533C0.486541 322.601 0.268065 322.769 0.135172 322.998C0.00227952 323.227 -0.0341644 323.5 0.0338385 323.756L27.324 426.183C27.3925 426.439 27.5598 426.658 27.7893 426.791C28.0187 426.924 28.2915 426.96 28.5477 426.892L105.851 406.296C106.107 406.227 106.326 406.06 106.458 405.831C106.591 405.601 106.628 405.328 106.56 405.072L79.2697 302.645C79.2012 302.389 79.0338 302.171 78.8044 302.038C78.5749 301.905 78.3022 301.868 78.0459 301.936L0.74267 322.533Z" fill="#F2F2F2"/>
<path d="M19.7381 339.449C18.6722 339.733 18.1248 341.162 18.5171 342.634C18.9093 344.107 20.0954 345.074 21.1612 344.79L71.4083 331.403C72.4742 331.119 73.0216 329.689 72.6293 328.217C72.2371 326.745 71.051 325.777 69.9852 326.061L19.7381 339.449Z" fill="white"/>
<path d="M22.8275 351.044C21.7617 351.328 21.2142 352.757 21.6065 354.23C21.9988 355.702 23.1848 356.67 24.2507 356.386L74.4978 342.998C75.5636 342.714 76.1111 341.285 75.7188 339.812C75.3265 338.34 74.1405 337.373 73.0746 337.657L22.8275 351.044Z" fill="white"/>
<path d="M25.917 362.64C24.8511 362.924 24.3037 364.353 24.696 365.825C25.0882 367.298 26.2743 368.265 27.3401 367.981L77.5872 354.593C78.6531 354.309 79.2005 352.88 78.8082 351.408C78.4159 349.936 77.2299 348.968 76.1641 349.252L25.917 362.64Z" fill="white"/>
<path d="M29.0064 374.235C27.9406 374.519 27.3931 375.948 27.7854 377.421C28.1777 378.893 29.3637 379.861 30.4296 379.577L80.6767 366.189C81.7425 365.905 82.29 364.476 81.8977 363.003C81.5054 361.531 80.3193 360.564 79.2535 360.848L29.0064 374.235Z" fill="white"/>
<path d="M32.0959 385.831C31.03 386.115 30.4826 387.544 30.8749 389.016C31.2672 390.489 32.4532 391.456 33.519 391.172L83.7661 377.784C84.832 377.5 85.3794 376.071 84.9871 374.599C84.5949 373.127 83.4088 372.159 82.343 372.443L32.0959 385.831Z" fill="white"/>
<path d="M35.1853 397.426C34.1195 397.71 33.5721 399.139 33.9643 400.612C34.3566 402.084 35.5426 403.052 36.6085 402.768L86.8556 389.38C87.9214 389.096 88.4688 387.667 88.0766 386.194C87.6843 384.722 86.4983 383.755 85.4324 384.038L35.1853 397.426Z" fill="white"/>
<path d="M198.297 683.426C198.297 683.553 198.745 683.657 199.297 683.657H305.297C305.848 683.657 306.297 683.553 306.297 683.426V664.889C306.297 664.761 305.848 664.657 305.297 664.657H199.297C198.745 664.657 198.297 664.761 198.297 664.889V683.426Z" fill="#F2F2F2"/>
<path d="M219.533 680.182C219.533 680.437 220.773 680.645 222.297 680.645C223.82 680.645 225.061 680.437 225.061 680.182V668.133C225.061 667.877 223.82 667.67 222.297 667.67C220.773 667.67 219.533 667.877 219.533 668.133V680.182Z" fill="white"/>
<path d="M231.533 680.182C231.533 680.437 232.773 680.645 234.297 680.645C235.82 680.645 237.061 680.437 237.061 680.182V668.133C237.061 667.877 235.82 667.67 234.297 667.67C232.773 667.67 231.533 667.877 231.533 668.133V680.182Z" fill="white"/>
<path d="M243.533 680.182C243.533 680.437 244.773 680.645 246.297 680.645C247.82 680.645 249.061 680.437 249.061 680.182V668.133C249.061 667.877 247.82 667.67 246.297 667.67C244.773 667.67 243.533 667.877 243.533 668.133V680.182Z" fill="white"/>
<path d="M255.533 680.182C255.533 680.437 256.773 680.645 258.297 680.645C259.82 680.645 261.061 680.437 261.061 680.182V668.133C261.061 667.877 259.82 667.67 258.297 667.67C256.773 667.67 255.533 667.877 255.533 668.133V680.182Z" fill="white"/>
<path d="M267.533 680.182C267.533 680.437 268.773 680.645 270.297 680.645C271.82 680.645 273.061 680.437 273.061 680.182V668.133C273.061 667.877 271.82 667.67 270.297 667.67C268.773 667.67 267.533 667.877 267.533 668.133V680.182Z" fill="white"/>
<path d="M279.533 680.182C279.533 680.437 280.773 680.645 282.297 680.645C283.82 680.645 285.061 680.437 285.061 680.182V668.133C285.061 667.877 283.82 667.67 282.297 667.67C280.773 667.67 279.533 667.877 279.533 668.133V680.182Z" fill="white"/>
<path d="M3.57828 248.617C3.34451 248.743 3.16993 248.955 3.09285 249.209C3.01576 249.463 3.04247 249.737 3.16711 249.971L53.0905 343.478C53.2156 343.712 53.4284 343.886 53.6821 343.963C53.9358 344.041 54.2097 344.014 54.4437 343.889L125.015 306.211C125.249 306.086 125.424 305.873 125.501 305.62C125.578 305.366 125.551 305.092 125.427 304.858L75.5031 211.351C75.378 211.117 75.1652 210.942 74.9116 210.865C74.6579 210.788 74.384 210.815 74.15 210.939L3.57828 248.617Z" fill="#E6E6E6"/>
<path d="M10.1381 251.35L55.8232 336.917L118.456 303.479L72.7705 217.91L10.1381 251.35ZM6.16939 253.469L6.17818 253.464L6.16841 253.469L6.16939 253.469Z" fill="white"/>
<path d="M25.93 260.757C24.957 261.277 24.7499 262.793 25.4675 264.137C26.1851 265.481 27.5605 266.153 28.5335 265.633L74.4051 241.143C75.3781 240.623 75.5852 239.107 74.8676 237.763C74.15 236.419 72.7746 235.747 71.8016 236.266L25.93 260.757Z" fill="#9962D1"/>
<path d="M31.5817 271.343C30.6087 271.862 30.4016 273.379 31.1192 274.723C31.8368 276.067 33.2122 276.739 34.1852 276.219L80.0568 251.728C81.0298 251.209 81.2369 249.692 80.5193 248.348C79.8017 247.004 78.4263 246.333 77.4533 246.852L31.5817 271.343Z" fill="#9962D1"/>
<path d="M37.2335 281.929C36.2605 282.448 36.0533 283.965 36.7709 285.309C37.4885 286.653 38.8639 287.324 39.8369 286.805L85.7085 262.314C86.6815 261.795 86.8887 260.278 86.1711 258.934C85.4535 257.59 84.0781 256.918 83.1051 257.438L37.2335 281.929Z" fill="#9962D1"/>
<path d="M42.8852 292.514C41.9122 293.034 41.705 294.55 42.4226 295.894C43.1402 297.239 44.5156 297.91 45.4886 297.391L91.3602 272.9C92.3332 272.38 92.5404 270.864 91.8228 269.52C91.1052 268.176 89.7298 267.504 88.7568 268.024L42.8852 292.514Z" fill="#9962D1"/>
<path d="M48.5369 303.1C47.5639 303.62 47.3567 305.136 48.0743 306.48C48.7919 307.824 50.1673 308.496 51.1403 307.976L97.0119 283.486C97.9849 282.966 98.192 281.45 97.4744 280.106C96.7568 278.761 95.3814 278.09 94.4084 278.609L48.5369 303.1Z" fill="#9962D1"/>
<path d="M54.1886 313.686C53.2156 314.205 53.0084 315.722 53.726 317.066C54.4436 318.41 55.819 319.082 56.792 318.562L102.664 294.071C103.637 293.552 103.844 292.035 103.126 290.691C102.409 289.347 101.033 288.676 100.06 289.195L54.1886 313.686Z" fill="#9962D1"/>
<path d="M689.333 487.575C689.104 487.44 688.832 487.402 688.575 487.468C688.318 487.534 688.098 487.699 687.963 487.927L634.036 579.184C633.901 579.412 633.862 579.685 633.928 579.942C633.994 580.198 634.16 580.418 634.388 580.554L703.261 621.254C703.489 621.388 703.762 621.427 704.018 621.361C704.275 621.295 704.495 621.13 704.63 620.901L758.558 529.645C758.693 529.416 758.731 529.144 758.665 528.887C758.599 528.63 758.434 528.41 758.206 528.275L689.333 487.575Z" fill="#E6E6E6"/>
<path d="M690.409 494.599L641.061 578.108L702.185 614.229L751.534 530.72L690.409 494.599ZM686.536 492.31L686.544 492.315L686.535 492.31L686.536 492.31Z" fill="white"/>
<path d="M690.582 512.98C689.632 512.419 688.229 513.03 687.454 514.342C686.679 515.654 686.82 517.178 687.769 517.739L732.537 544.194C733.487 544.755 734.89 544.144 735.665 542.832C736.44 541.52 736.299 539.996 735.349 539.435L690.582 512.98Z" fill="#9962D1"/>
<path d="M684.477 523.311C683.527 522.75 682.124 523.361 681.349 524.673C680.574 525.985 680.715 527.509 681.664 528.07L726.432 554.525C727.382 555.086 728.785 554.475 729.56 553.163C730.335 551.851 730.194 550.327 729.244 549.766L684.477 523.311Z" fill="#9962D1"/>
<path d="M678.372 533.642C677.422 533.081 676.019 533.692 675.244 535.004C674.468 536.316 674.61 537.84 675.559 538.401L720.327 564.856C721.276 565.417 722.68 564.806 723.455 563.494C724.23 562.182 724.089 560.658 723.139 560.097L678.372 533.642Z" fill="#9962D1"/>
<path d="M672.267 543.973C671.317 543.412 669.914 544.023 669.139 545.335C668.363 546.646 668.505 548.171 669.454 548.732L714.222 575.187C715.172 575.748 716.575 575.136 717.35 573.825C718.125 572.513 717.984 570.989 717.034 570.428L672.267 543.973Z" fill="#9962D1"/>
<path d="M666.162 554.304C665.212 553.743 663.809 554.354 663.034 555.666C662.258 556.977 662.4 558.502 663.349 559.063L708.117 585.518C709.066 586.079 710.47 585.467 711.245 584.156C712.02 582.844 711.879 581.32 710.929 580.759L666.162 554.304Z" fill="#9962D1"/>
<path d="M660.057 564.635C659.107 564.074 657.704 564.685 656.929 565.997C656.153 567.309 656.295 568.833 657.244 569.394L702.012 595.849C702.962 596.41 704.365 595.799 705.14 594.487C705.915 593.175 705.774 591.651 704.824 591.09L660.057 564.635Z" fill="#9962D1"/>
</g>
<defs>
<clipPath id="clip0">
<rect width="758.697" height="683.657" fill="white"/>
</clipPath>
</defs>
</svg>
