<svg width="909" height="594" viewBox="0 0 909 594" fill="none" xmlns="http://www.w3.org/2000/svg">
<g clip-path="url(#clip0)">
<path d="M831.025 29.4256L57.4559 30.5057L58.202 564.855L831.771 563.775L831.025 29.4256Z" fill="url(#paint0_linear)"/>
<g opacity="0.7">
<path opacity="0.7" d="M879.634 -0.0522558L28.2948 1.13644C12.6486 1.15828 -0.0174464 13.8598 0.00439988 29.506L0.751889 564.855C0.773735 580.502 13.4752 593.168 29.1214 593.146L880.461 591.957C896.107 591.935 908.773 579.234 908.751 563.588L908.004 28.2382C907.982 12.592 895.28 -0.074102 879.634 -0.0522558Z" fill="url(#paint1_linear)"/>
</g>
<path d="M724.896 548H84V31H832V477.572L831.57 547.252L724.896 548Z" fill="white"/>
<g opacity="0.7">
<path opacity="0.7" d="M832.06 221.97H84.37V228.83H832.06V221.97Z" fill="#E0E0E0"/>
</g>
<g opacity="0.7">
<path opacity="0.7" d="M832.06 184.97H84.37V191.83H832.06V184.97Z" fill="#E0E0E0"/>
</g>
<g opacity="0.7">
<path opacity="0.7" d="M832.06 147.97H84.37V154.83H832.06V147.97Z" fill="#E0E0E0"/>
</g>
<g opacity="0.7">
<path opacity="0.7" d="M832.06 110.97H84.37V117.83H832.06V110.97Z" fill="#E0E0E0"/>
</g>
<g opacity="0.7">
<path opacity="0.7" d="M832.06 73.97H84.37V80.83H832.06V73.97Z" fill="#E0E0E0"/>
</g>
<g opacity="0.7">
<path opacity="0.7" d="M832.06 258.98H84.37V265.84H832.06V258.98Z" fill="#E0E0E0"/>
</g>
<g opacity="0.7">
<path opacity="0.7" d="M832.06 296H84.37V302.86H832.06V296Z" fill="#E0E0E0"/>
</g>
<g opacity="0.7">
<path opacity="0.7" d="M832.06 333.02H84.37V339.88H832.06V333.02Z" fill="#E0E0E0"/>
</g>
<g opacity="0.7">
<path opacity="0.7" d="M832.06 370.04H84.37V376.9H832.06V370.04Z" fill="#E0E0E0"/>
</g>
<g opacity="0.7">
<path opacity="0.7" d="M832.06 407.05H84.37V413.91H832.06V407.05Z" fill="#E0E0E0"/>
</g>
<g opacity="0.7">
<path opacity="0.7" d="M832.06 444.07H84.37V450.93H832.06V444.07Z" fill="#E0E0E0"/>
</g>
<g opacity="0.7">
<path opacity="0.7" d="M831.93 481.09H84.36V487.95H831.93V481.09Z" fill="#E0E0E0"/>
</g>
<g opacity="0.7">
<path opacity="0.7" d="M831.36 518.11H84.37V524.97H831.36V518.11Z" fill="#E0E0E0"/>
</g>
<path d="M179.34 80.8H174.16V547.58H179.34V80.8Z" fill="#E0E0E0"/>
<path d="M293.74 80.8H288.56V547.58H293.74V80.8Z" fill="#E0E0E0"/>
<path d="M408.14 80.8H402.96V547.58H408.14V80.8Z" fill="#E0E0E0"/>
<path d="M522.54 80.8H517.36V547.58H522.54V80.8Z" fill="#E0E0E0"/>
<path d="M636.94 80.8H631.76V547.58H636.94V80.8Z" fill="#E0E0E0"/>
<path d="M751.34 547.58H746.16V80.8L751.34 80.58V547.58Z" fill="#E0E0E0"/>
<path d="M101.09 67.81C104.807 67.81 107.82 64.7969 107.82 61.08C107.82 57.3631 104.807 54.35 101.09 54.35C97.3731 54.35 94.36 57.3631 94.36 61.08C94.36 64.7969 97.3731 67.81 101.09 67.81Z" fill="#FF5252"/>
<path d="M120.36 67.81C124.077 67.81 127.09 64.7969 127.09 61.08C127.09 57.3631 124.077 54.35 120.36 54.35C116.643 54.35 113.63 57.3631 113.63 61.08C113.63 64.7969 116.643 67.81 120.36 67.81Z" fill="#FFFF00"/>
<path d="M139.63 67.81C143.347 67.81 146.36 64.7969 146.36 61.08C146.36 57.3631 143.347 54.35 139.63 54.35C135.913 54.35 132.9 57.3631 132.9 61.08C132.9 64.7969 135.913 67.81 139.63 67.81Z" fill="#69F0AE"/>
<path d="M403.36 339.58H293.36V369.58H403.36V339.58Z" fill="#6C63FF"/>
<path d="M518.36 487.58H408.36V517.58H518.36V487.58Z" fill="#6C63FF"/>
<path d="M632.36 447.58H522.36V477.58H632.36V447.58Z" fill="#6C63FF"/>
<path d="M632.36 228.58H522.36V258.58H632.36V228.58Z" fill="#6C63FF"/>
<path d="M747.36 376.58H637.36V406.58H747.36V376.58Z" fill="#6C63FF"/>
<path d="M288.36 117.58H178.36V147.58H288.36V117.58Z" fill="#6C63FF"/>
<path d="M518.36 192.58H408.36V222.58H518.36V192.58Z" fill="#6C63FF"/>
<path d="M288.36 265.58H178.36V295.58H288.36V265.58Z" fill="#6C63FF"/>
</g>
<defs>
<linearGradient id="paint0_linear" x1="57.829" y1="297.676" x2="831.398" y2="296.595" gradientUnits="userSpaceOnUse">
<stop stop-opacity="0.12"/>
<stop offset="0.55" stop-opacity="0.09"/>
<stop offset="1" stop-opacity="0.02"/>
</linearGradient>
<linearGradient id="paint1_linear" x1="454.359" y1="593.159" x2="454.359" y2="-0.000834665" gradientUnits="userSpaceOnUse">
<stop stop-color="#808080" stop-opacity="0.25"/>
<stop offset="0.54" stop-color="#808080" stop-opacity="0.12"/>
<stop offset="1" stop-color="#808080" stop-opacity="0.1"/>
</linearGradient>
<clipPath id="clip0">
<rect width="908.72" height="593.16" fill="white"/>
</clipPath>
</defs>
</svg>
